# xmcd
#
# Track frame offsets:
#	150
#	11623
#	28013
#	37037
#	48149
#	59161
#	70191
#	106829
#	118899
#	130105
#	143176
#	153403
#	166743
#
# Disc length: 2368 seconds
#
# Revision: 1
# Processed by: cddbd v1.5.2PL0 Copyright (c) Steve Scherf et al.
# Submitted via: audiograbber 1.83.01
#
DISCID=b0093e0d
DTITLE=Elvis Preley - Christmas Duets
DYEAR=2008
DGENRE=Weinachten
TTITLE0=Blue Christmas (with Martina McBride) 
TTITLE1=I'll Be Home For Christmas (with Carrie Underwood) 
TTITLE2=Here Comes Santa Claus (Right Down Santa Claus Lane) (with LeAnn Rimes)
TTITLE2=
TTITLE3=Santa Claus Is Back In Town (with Wynonna Judd) 
TTITLE4=Silent Night (with Sara Evans) 
TTITLE5=White Christmas (with Amy Grant) 
TTITLE6=Merry Christmas Baby (with Gretchen Wilson) 
TTITLE7=O Little Town Of Bethlehem (with Karen Fairchild and Kimberly Schlapman
TTITLE7=of Little Big Town) 
TTITLE8=Silver Bells (with Anne Murray) 
TTITLE9=O Come, All Ye Faithful (with Olivia Newton-John) 
TTITLE10=The First Noel (2008) 
TTITLE11=If I Get Home On Christmas Day (2008) 
TTITLE12=Winter Wonderland (2008) 
EXTD=
EXTT0=
EXTT1=
EXTT2=
EXTT3=
EXTT4=
EXTT5=
EXTT6=
EXTT7=
EXTT8=
EXTT9=
EXTT10=
EXTT11=
EXTT12=
PLAYORDER=
